[Header]
# KeyWord<space>Value<CR>FileType htr
DataType HTRS
FileVersion 1.0
NumSegments 32
NumFrames 4
DataFrameRate 24
EulerRotationOrder XYZ
CalibrationUnits m
RotationUnits Degrees
GlobalAxisofGravity Z
BoneLengthAxis Z
BoneLengthAxis Z
ScaleFactor 1.00
[SegmentNames&Hierarchy]
# ObjectName<tab>ParentObjectName<CR>
pelvis	GLOBAL
spine01	pelvis
spine02	spine01
spine03	spine02
neck	spine03
head	neck
Collar_left	spine03
shoulder_up_left	Collar_left
bicep_up_left	shoulder_up_left
forearm_up_left	bicep_up_left
hand_up_left	forearm_up_left
shoulder_down_left	Collar_left
bicep_down_left	shoulder_down_left
forearm_down_left	bicep_down_left
hand_down_left	forearm_down_left
Collar_right	spine03
shoulder_up_right	Collar_right
bicep_up_right	shoulder_up_right
forearm_up_right	bicep_up_right
hand_up_right	forearm_up_right
shoulder_down_right	Collar_right
bicep_down_right	shoulder_down_right
forearm_down_right	bicep_down_right
hand_down_right	forearm_down_right
hip_left	pelvis
thigh_left	hip_left
shin_left	thigh_left
foot_left	shin_left
hip_right	pelvis
thigh_right	hip_right
shin_right	thigh_right
foot_right	shin_right
[BasePosition]
# ObjectName<tab>Tx<tab>Ty<tab>Tz<tab>Rx<tab>Ry<tab>Rz<tab>BoneLength<CR>
pelvis	0.000000	-0.438872	6.292977	90.000003	-0.000000	0.000000	1.000000
spine01	0.000000	-0.438872	7.970248	90.000003	-0.000000	0.000000	1.000000
spine02	0.000000	-0.438872	10.340697	90.000003	-0.000000	0.000000	1.000000
spine03	0.000000	-0.438872	13.021563	90.000003	-0.000000	0.000000	1.000000
neck	0.000000	-0.438872	16.182161	90.000003	-0.000000	0.000000	1.000000
head	0.000000	-0.438872	17.452044	90.000003	-0.000000	0.000014	1.000000
Collar_left	0.000000	-0.438872	16.182161	114.324943	-109.283163	-3.448282	1.000000
shoulder_up_left	-2.246972	-1.353188	15.416688	89.999955	-101.168646	0.000051	1.000000
bicep_up_left	-4.544489	-1.353188	14.963074	94.597615	-95.170613	-0.305692	1.000000
forearm_up_left	-8.587797	-1.657960	14.597347	85.600206	-93.126604	-0.279561	1.000000
hand_up_left	-12.306015	-1.353188	14.394166	85.300436	-97.657908	-0.750653	1.000000
shoulder_down_left	-2.246972	-1.353188	15.416688	97.171845	-144.053812	-0.627842	1.000000
bicep_down_left	-4.260035	-1.761673	12.646806	95.982825	-137.161086	0.000016	1.000000
forearm_down_left	-6.332484	-2.081106	10.411811	78.293864	-138.751741	0.000033	1.000000
hand_down_left	-8.648752	-1.353187	7.770453	89.999989	-141.340205	0.000017	1.000000
Collar_right	0.000000	-0.438872	16.182161	114.324943	109.283163	3.448282	1.000000
shoulder_up_right	2.246972	-1.353188	15.416688	89.999955	101.168646	-0.000051	1.000000
bicep_up_right	4.544489	-1.353188	14.963074	94.597615	95.170613	0.305692	1.000000
forearm_up_right	8.587797	-1.657960	14.597347	85.600206	93.126604	0.279561	1.000000
hand_up_right	12.306015	-1.353188	14.394166	85.300436	97.657908	0.750653	1.000000
shoulder_down_right	2.246972	-1.353188	15.416688	97.171845	144.053812	0.627842	1.000000
bicep_down_right	4.260035	-1.761673	12.646806	95.982825	137.161086	-0.000016	1.000000
forearm_down_right	6.332484	-2.081106	10.411811	78.293864	138.751741	-0.000033	1.000000
hand_down_right	8.648752	-1.353187	7.770453	89.999989	141.340205	-0.000017	1.000000
hip_left	0.000000	-0.438872	6.292977	-6.241914	-0.000005	89.999996	1.000000
thigh_left	-2.600721	-0.438872	6.008523	-79.303489	-0.000003	90.000003	1.000000
shin_left	-3.000499	-0.438872	3.892051	-90.969439	1.681318	89.968611	1.000000
foot_left	-2.953466	-0.520526	1.111133	-93.081914	-75.718200	93.179995	1.000000
hip_right	0.000000	-0.438872	6.292977	-6.241914	0.000005	-89.999996	1.000000
thigh_right	2.600721	-0.438872	6.008523	-79.303489	0.000003	-90.000003	1.000000
shin_right	3.000499	-0.438872	3.892051	-90.969439	-1.681318	-89.968611	1.000000
foot_right	2.953466	-0.520526	1.111133	-93.081914	75.718200	-93.179995	1.000000
[pelvis]
# Tx<tab>Ty<tab>Tz<tab>Rx<tab>Ry<tab>Rz<tab>BoneScaleFactor<CR>
31	0.000000	0.000000	0.000000	0.000000	-0.000000	0.000000	1.000000
32	0.000000	0.000000	0.000000	0.000000	-0.000000	0.000000	1.000000
33	0.000000	0.000000	0.000000	0.000000	-0.000000	0.000000	1.000000
34	0.000000	0.000000	0.000000	0.000000	-0.000000	0.000000	1.000000
[spine01]
# Tx<tab>Ty<tab>Tz<tab>Rx<tab>Ry<tab>Rz<tab>BoneScaleFactor<CR>
31	0.000000	0.000000	0.000000	-16.152986	0.000000	0.000000	1.000000
32	0.000000	0.000000	0.000000	-15.999819	0.000000	0.000000	1.000000
33	0.000000	0.000000	0.000000	-15.753258	0.000000	0.000000	1.000000
34	0.000000	0.000000	0.000000	-15.420409	0.000000	0.000000	1.000000
[spine02]
# Tx<tab>Ty<tab>Tz<tab>Rx<tab>Ry<tab>Rz<tab>BoneScaleFactor<CR>
31	0.000000	0.000000	0.000000	-19.819040	0.000000	0.000000	1.000000
32	0.000000	0.000000	0.000000	-19.631417	0.000000	0.000000	1.000000
33	0.000000	0.000000	0.000000	-19.329350	0.000000	0.000000	1.000000
34	0.000000	0.000000	0.000000	-18.921494	0.000000	0.000000	1.000000
[spine03]
# Tx<tab>Ty<tab>Tz<tab>Rx<tab>Ry<tab>Rz<tab>BoneScaleFactor<CR>
31	0.000000	0.000000	0.000000	-15.314105	0.000000	0.000000	1.000000
32	0.000000	0.000000	0.000000	-15.168850	0.000000	0.000000	1.000000
33	-0.000000	0.000001	0.000000	-14.935021	0.000000	0.000000	1.000000
34	0.000000	0.000000	0.000000	-14.619373	0.000000	0.000000	1.000000
[neck]
# Tx<tab>Ty<tab>Tz<tab>Rx<tab>Ry<tab>Rz<tab>BoneScaleFactor<CR>
31	0.000000	0.000000	0.000000	0.000000	-0.000000	0.000000	1.000000
32	0.000000	-0.000001	0.000000	0.000002	-0.000000	-0.000000	1.000000
33	0.000000	0.000000	-0.000001	0.000002	-0.000000	-0.000000	1.000000
34	0.000000	0.000000	0.000000	0.000000	-0.000000	0.000000	1.000000
[head]
# Tx<tab>Ty<tab>Tz<tab>Rx<tab>Ry<tab>Rz<tab>BoneScaleFactor<CR>
31	0.000000	0.000000	0.000001	-2.602266	-0.000000	-0.000001	1.000000
32	0.000000	0.000000	0.000001	-2.577510	-0.000000	-0.000001	1.000000
33	0.000000	0.000001	0.000000	-2.537681	-0.000000	-0.000001	1.000000
34	0.000000	0.000000	0.000000	-2.483922	-0.000000	-0.000001	1.000000
[Collar_left]
# Tx<tab>Ty<tab>Tz<tab>Rx<tab>Ry<tab>Rz<tab>BoneScaleFactor<CR>
31	0.000000	0.000000	0.000000	-0.000000	0.000002	-0.000002	1.000000
32	-0.000001	-0.000000	0.000000	-0.000001	0.000002	-0.000001	1.000000
33	0.000000	0.000000	0.000000	-0.000001	-0.000000	-0.000001	1.000000
34	0.000000	0.000000	-0.000001	0.000000	-0.000002	-0.000000	1.000000
[shoulder_up_left]
# Tx<tab>Ty<tab>Tz<tab>Rx<tab>Ry<tab>Rz<tab>BoneScaleFactor<CR>
31	0.000000	0.000000	-0.000001	0.000001	-0.000010	-38.204407	1.000000
32	0.000000	-0.000000	0.000000	0.000000	-0.000009	-37.847437	1.000000
33	-0.000001	0.000000	0.000000	-0.000001	-0.000005	-37.272165	1.000000
34	0.000001	0.000000	0.000001	-0.000001	-0.000005	-36.494367	1.000000
[bicep_up_left]
# Tx<tab>Ty<tab>Tz<tab>Rx<tab>Ry<tab>Rz<tab>BoneScaleFactor<CR>
31	-0.000001	0.000000	0.000000	0.000000	-0.000000	0.000001	1.000000
32	0.000000	0.000000	0.000000	0.000000	0.000002	0.000000	1.000000
33	-0.000002	-0.000001	0.000000	0.000000	-0.000000	-0.000001	1.000000
34	0.000001	-0.000001	0.000000	0.000000	-0.000000	-0.000001	1.000000
[forearm_up_left]
# Tx<tab>Ty<tab>Tz<tab>Rx<tab>Ry<tab>Rz<tab>BoneScaleFactor<CR>
31	0.000000	-0.000001	0.000001	0.000002	-0.000005	0.000000	1.000000
32	0.000000	0.000001	0.000000	0.000000	-0.000000	-0.000002	1.000000
33	0.000001	0.000001	-0.000001	0.000002	-0.000002	0.000002	1.000000
34	0.000001	-0.000001	0.000000	0.000001	-0.000000	0.000003	1.000000
[hand_up_left]
# Tx<tab>Ty<tab>Tz<tab>Rx<tab>Ry<tab>Rz<tab>BoneScaleFactor<CR>
31	0.000000	-0.000002	0.000001	-0.733232	-39.545327	-7.333308	1.000000
32	-0.000002	0.000000	0.000000	-0.754935	-39.176637	-7.251538	1.000000
33	0.000000	-0.000002	-0.000001	-0.788266	-38.582311	-7.121006	1.000000
34	0.000000	0.000000	0.000000	-0.830185	-37.778517	-6.946860	1.000000
[shoulder_down_left]
# Tx<tab>Ty<tab>Tz<tab>Rx<tab>Ry<tab>Rz<tab>BoneScaleFactor<CR>
31	0.000000	-0.000001	-0.000001	0.000000	-0.000000	0.000000	1.000000
32	0.000001	0.000000	0.000000	0.000002	-0.000000	0.000001	1.000000
33	0.000000	0.000000	0.000000	-0.000002	-0.000003	0.000000	1.000000
34	0.000000	0.000000	-0.000001	-0.000002	-0.000000	-0.000002	1.000000
[bicep_down_left]
# Tx<tab>Ty<tab>Tz<tab>Rx<tab>Ry<tab>Rz<tab>BoneScaleFactor<CR>
31	0.000001	-0.000001	0.000001	-40.216314	-29.185726	14.531134	1.000000
32	0.000000	-0.000000	0.000001	-39.767369	-28.974666	14.281283	1.000000
33	0.000000	0.000000	0.000000	-39.047464	-28.630705	13.883379	1.000000
34	0.000000	-0.000001	0.000000	-38.081143	-28.158256	13.354745	1.000000
[forearm_down_left]
# Tx<tab>Ty<tab>Tz<tab>Rx<tab>Ry<tab>Rz<tab>BoneScaleFactor<CR>
31	0.000000	0.000000	0.000000	-26.103255	-22.311173	0.530776	1.000000
32	-0.000001	0.000000	0.000000	-25.841327	-22.106612	0.474599	1.000000
33	0.000000	0.000001	-0.000000	-25.420576	-21.776552	0.386374	1.000000
34	0.000001	-0.000001	-0.000000	-24.854307	-21.329526	0.271591	1.000000
[hand_down_left]
# Tx<tab>Ty<tab>Tz<tab>Rx<tab>Ry<tab>Rz<tab>BoneScaleFactor<CR>
31	0.000001	-0.000000	0.000000	0.000002	0.000002	0.000000	1.000000
32	0.000001	-0.000001	0.000000	0.000002	0.000002	-0.000002	1.000000
33	0.000000	-0.000001	0.000000	0.000002	-0.000000	-0.000002	1.000000
34	-0.000001	-0.000000	-0.000000	0.000000	-0.000000	-0.000002	1.000000
[Collar_right]
# Tx<tab>Ty<tab>Tz<tab>Rx<tab>Ry<tab>Rz<tab>BoneScaleFactor<CR>
31	0.000000	0.000000	0.000000	-0.000000	-0.000002	0.000002	1.000000
32	0.000001	-0.000000	0.000000	-0.000001	-0.000002	0.000001	1.000000
33	0.000000	0.000000	0.000000	-0.000001	-0.000000	0.000001	1.000000
34	0.000000	0.000000	-0.000001	0.000000	0.000002	0.000000	1.000000
[shoulder_up_right]
# Tx<tab>Ty<tab>Tz<tab>Rx<tab>Ry<tab>Rz<tab>BoneScaleFactor<CR>
31	0.000000	0.000000	-0.000001	5.630711	-0.609394	42.928777	1.000000
32	0.000000	-0.000000	0.000000	5.582874	-0.584558	42.530273	1.000000
33	0.000001	0.000000	0.000000	5.505389	-0.545226	41.887774	1.000000
34	-0.000001	0.000000	0.000001	5.399878	-0.493402	41.018564	1.000000
[bicep_up_right]
# Tx<tab>Ty<tab>Tz<tab>Rx<tab>Ry<tab>Rz<tab>BoneScaleFactor<CR>
31	0.000000	0.000000	0.000000	0.000000	0.000002	-0.000003	1.000000
32	-0.000000	0.000001	0.000000	0.000002	0.000002	-0.000002	1.000000
33	0.000001	-0.000001	0.000000	-0.000002	-0.000000	0.000002	1.000000
34	0.000000	0.000000	0.000000	0.000000	-0.000000	-0.000002	1.000000
[forearm_up_right]
# Tx<tab>Ty<tab>Tz<tab>Rx<tab>Ry<tab>Rz<tab>BoneScaleFactor<CR>
31	0.000000	0.000000	-0.000001	-36.372731	-17.882327	28.641360	1.000000
32	0.000001	-0.000001	-0.000001	-35.988632	-17.808412	28.321646	1.000000
33	-0.000001	0.000001	0.000000	-35.370589	-17.684941	27.807519	1.000000
34	0.000000	0.000000	0.000000	-34.536862	-17.509480	27.114704	1.000000
[hand_up_right]
# Tx<tab>Ty<tab>Tz<tab>Rx<tab>Ry<tab>Rz<tab>BoneScaleFactor<CR>
31	-0.000000	-0.000001	-0.000002	7.531796	56.177377	8.066914	1.000000
32	-0.000000	0.000000	0.000000	7.356203	55.670031	7.887547	1.000000
33	0.000000	0.000000	0.000000	7.083288	54.850527	7.608521	1.000000
34	-0.000000	0.000000	0.000000	6.732798	53.738897	7.249705	1.000000
[shoulder_down_right]
# Tx<tab>Ty<tab>Tz<tab>Rx<tab>Ry<tab>Rz<tab>BoneScaleFactor<CR>
31	0.000000	-0.000001	-0.000001	0.000000	-0.000000	0.000000	1.000000
32	-0.000001	0.000000	0.000000	0.000002	-0.000000	-0.000001	1.000000
33	0.000000	0.000000	0.000000	-0.000002	0.000003	0.000000	1.000000
34	0.000000	0.000000	-0.000001	-0.000002	-0.000000	0.000002	1.000000
[bicep_down_right]
# Tx<tab>Ty<tab>Tz<tab>Rx<tab>Ry<tab>Rz<tab>BoneScaleFactor<CR>
31	-0.000001	-0.000001	0.000001	-40.216314	29.185726	-14.531134	1.000000
32	0.000000	-0.000000	0.000001	-39.767369	28.974666	-14.281283	1.000000
33	0.000000	0.000000	0.000000	-39.047464	28.630705	-13.883379	1.000000
34	0.000000	-0.000001	0.000000	-38.081143	28.158256	-13.354745	1.000000
[forearm_down_right]
# Tx<tab>Ty<tab>Tz<tab>Rx<tab>Ry<tab>Rz<tab>BoneScaleFactor<CR>
31	0.000000	0.000000	0.000000	-26.103255	22.311173	-0.530776	1.000000
32	0.000001	0.000000	0.000000	-25.841327	22.106612	-0.474599	1.000000
33	0.000000	0.000001	-0.000000	-25.420576	21.776552	-0.386374	1.000000
34	-0.000001	-0.000001	-0.000000	-24.854307	21.329526	-0.271591	1.000000
[hand_down_right]
# Tx<tab>Ty<tab>Tz<tab>Rx<tab>Ry<tab>Rz<tab>BoneScaleFactor<CR>
31	-0.000001	-0.000000	0.000000	0.000002	-0.000002	0.000000	1.000000
32	-0.000001	-0.000001	0.000000	0.000002	-0.000002	0.000002	1.000000
33	0.000000	-0.000001	0.000000	0.000002	-0.000000	0.000002	1.000000
34	0.000001	-0.000000	-0.000000	0.000000	-0.000000	0.000002	1.000000
[hip_left]
# Tx<tab>Ty<tab>Tz<tab>Rx<tab>Ry<tab>Rz<tab>BoneScaleFactor<CR>
31	0.000000	-0.000000	0.000000	0.000000	-0.000000	-0.000000	1.000000
32	0.000000	-0.000000	0.000000	0.000000	-0.000000	-0.000000	1.000000
33	0.000000	-0.000000	0.000000	0.000000	-0.000000	-0.000000	1.000000
34	0.000000	-0.000000	0.000000	0.000000	-0.000000	-0.000000	1.000000
[thigh_left]
# Tx<tab>Ty<tab>Tz<tab>Rx<tab>Ry<tab>Rz<tab>BoneScaleFactor<CR>
31	0.000000	-0.000000	0.000000	0.000001	-0.000000	0.000000	1.000000
32	0.000000	-0.000000	0.000000	0.000001	-0.000000	0.000000	1.000000
33	0.000000	-0.000000	0.000000	0.000001	-0.000000	0.000000	1.000000
34	0.000000	-0.000000	0.000000	0.000001	-0.000000	0.000000	1.000000
[shin_left]
# Tx<tab>Ty<tab>Tz<tab>Rx<tab>Ry<tab>Rz<tab>BoneScaleFactor<CR>
31	0.000000	-0.000000	0.000000	0.000000	0.000000	-0.000000	1.000000
32	0.000000	-0.000000	0.000000	0.000000	0.000000	-0.000000	1.000000
33	0.000000	-0.000000	0.000000	0.000000	0.000000	-0.000000	1.000000
34	0.000000	-0.000000	0.000000	0.000000	0.000000	-0.000000	1.000000
[foot_left]
# Tx<tab>Ty<tab>Tz<tab>Rx<tab>Ry<tab>Rz<tab>BoneScaleFactor<CR>
31	0.000000	-0.000000	0.000000	-0.000000	-0.000000	0.000000	1.000000
32	0.000000	-0.000000	0.000000	-0.000000	-0.000000	0.000000	1.000000
33	0.000000	-0.000000	0.000000	-0.000000	-0.000000	0.000000	1.000000
34	0.000000	-0.000000	0.000000	-0.000000	-0.000000	0.000000	1.000000
[hip_right]
# Tx<tab>Ty<tab>Tz<tab>Rx<tab>Ry<tab>Rz<tab>BoneScaleFactor<CR>
31	-0.000000	-0.000000	0.000000	0.000000	0.000000	0.000000	1.000000
32	-0.000000	-0.000000	0.000000	0.000000	0.000000	0.000000	1.000000
33	-0.000000	-0.000000	0.000000	0.000000	0.000000	0.000000	1.000000
34	-0.000000	-0.000000	0.000000	0.000000	0.000000	0.000000	1.000000
[thigh_right]
# Tx<tab>Ty<tab>Tz<tab>Rx<tab>Ry<tab>Rz<tab>BoneScaleFactor<CR>
31	-0.000000	-0.000000	0.000000	0.000001	0.000000	-0.000000	1.000000
32	-0.000000	-0.000000	0.000000	0.000001	0.000000	-0.000000	1.000000
33	-0.000000	-0.000000	0.000000	0.000001	0.000000	-0.000000	1.000000
34	-0.000000	-0.000000	0.000000	0.000001	0.000000	-0.000000	1.000000
[shin_right]
# Tx<tab>Ty<tab>Tz<tab>Rx<tab>Ry<tab>Rz<tab>BoneScaleFactor<CR>
31	0.000000	-0.000000	0.000000	0.000000	-0.000000	0.000000	1.000000
32	0.000000	-0.000000	0.000000	0.000000	-0.000000	0.000000	1.000000
33	0.000000	-0.000000	0.000000	0.000000	-0.000000	0.000000	1.000000
34	0.000000	-0.000000	0.000000	0.000000	-0.000000	0.000000	1.000000
[foot_right]
# Tx<tab>Ty<tab>Tz<tab>Rx<tab>Ry<tab>Rz<tab>BoneScaleFactor<CR>
31	-0.000000	-0.000000	0.000000	-0.000000	-0.000000	0.000000	1.000000
32	-0.000000	-0.000000	0.000000	-0.000000	-0.000000	0.000000	1.000000
33	-0.000000	-0.000000	0.000000	-0.000000	-0.000000	0.000000	1.000000
34	-0.000000	-0.000000	0.000000	-0.000000	-0.000000	0.000000	1.000000
[EndOfFile]
